<svg width="280" height="280" viewBox="0 0 280 280" fill="none" xmlns="http://www.w3.org/2000/svg">
<path d="M108.034 121.649V158.36L139.988 176.717L171.94 158.36V121.649L139.988 103.292L108.034 121.649Z" fill="url(#paint0_linear_532_6)"/>
<path d="M108.034 121.649V158.36L139.988 176.717L171.94 158.36V121.649L139.988 103.292L108.034 121.649Z" fill="url(#paint1_linear_532_6)"/>
<g filter="url(#filter0_dddd_532_6)">
<path d="M151.394 144.81C149.928 146.185 148.164 146.966 146.102 147.153C143.787 147.368 141.753 146.804 139.961 145.473C138.195 144.156 137.211 142.444 137.016 140.357C136.821 138.27 137.478 136.424 138.982 134.798C140.466 133.178 142.383 132.245 144.699 132.03C146.441 131.867 148.074 132.172 149.6 132.944L152.857 124.77C149.113 122.393 144.979 121.415 140.475 121.831C135.209 122.331 130.875 124.513 127.479 128.399C125.879 130.227 124.713 132.282 123.931 134.535C123.151 136.874 122.867 139.271 123.099 141.72C123.336 144.188 124.053 146.5 125.248 148.655C126.421 150.729 127.952 152.527 129.882 154.038C131.786 155.535 133.933 156.657 136.292 157.369C138.743 158.1 141.271 158.328 143.846 158.105C146.462 157.871 148.914 157.137 151.216 155.942C153.422 154.796 155.332 153.296 156.941 151.423L151.394 144.81Z" fill="white"/>
</g>
<g filter="url(#filter1_d_532_6)">
<path d="M139.988 109.439L166.591 124.722V155.287L139.988 170.57L113.385 155.287V124.722L139.988 109.439V109.439ZM139.988 103.292L108.034 121.649V158.36L139.988 176.717L171.95 158.36V121.649L139.988 103.292V103.292Z" fill="url(#paint2_linear_532_6)"/>
<path d="M139.988 109.439L166.591 124.722V155.287L139.988 170.57L113.385 155.287V124.722L139.988 109.439V109.439ZM139.988 103.292L108.034 121.649V158.36L139.988 176.717L171.95 158.36V121.649L139.988 103.292V103.292Z" fill="url(#paint3_linear_532_6)"/>
</g>
<path d="M139.988 108.591L167.328 124.297V155.708L139.988 171.415L112.639 155.708V124.297L139.981 108.591H139.988ZM139.981 103.292L108.034 121.649V158.36L139.988 176.717L171.95 158.36V121.649L139.988 103.292H139.981Z" fill="url(#paint4_linear_532_6)"/>
<path d="M139.988 108.591L167.328 124.297V155.708L139.988 171.415L112.639 155.708V124.297L139.981 108.591H139.988ZM139.981 103.292L108.034 121.649V158.36L139.988 176.717L171.95 158.36V121.649L139.988 103.292H139.981Z" fill="url(#paint5_linear_532_6)"/>
<path d="M139.988 106.041L169.542 123.02V156.991L139.988 173.96L110.428 156.991V123.025L139.988 106.041ZM139.988 103.292L108.034 121.649V158.36L139.988 176.717L171.95 158.36V121.649L139.988 103.292Z" fill="url(#paint6_linear_532_6)"/>
<path d="M140.277 105.12L140.143 105.043H139.988H139.984H139.829L139.695 105.12L109.771 122.311L109.48 122.478V122.814V157.195V157.531L109.771 157.698L139.699 174.889L139.988 175.055L140.277 174.889L170.201 157.698L170.493 157.53V157.195V122.814V122.478L170.201 122.311L140.277 105.12ZM108.614 121.985L139.986 103.96L171.369 121.985V158.024L139.988 176.048L108.614 158.024V121.985Z" stroke="#010D17" stroke-width="1.16067"/>
<path d="M140.277 105.12L140.143 105.043H139.988H139.984H139.829L139.695 105.12L109.771 122.311L109.48 122.478V122.814V157.195V157.531L109.771 157.698L139.699 174.889L139.988 175.055L140.277 174.889L170.201 157.698L170.493 157.53V157.195V122.814V122.478L170.201 122.311L140.277 105.12ZM108.614 121.985L139.986 103.96L171.369 121.985V158.024L139.988 176.048L108.614 158.024V121.985Z" stroke="url(#paint7_linear_532_6)" stroke-width="1.16067"/>
<path d="M140.326 104.34L140.175 104.253H140H139.996H139.822L139.671 104.34L109.162 121.889L108.834 122.078V122.456V157.552V157.93L109.162 158.119L139.674 175.668L140 175.855L140.326 175.668L170.835 158.119L171.163 157.93V157.552V122.456V122.078L170.835 121.889L140.326 104.34ZM108.075 121.644L139.998 103.28L171.933 121.644V158.364L140 176.728L108.075 158.364V121.644Z" stroke="#010D17" stroke-width="1.30679"/>
<path d="M140.326 104.34L140.175 104.253H140H139.996H139.822L139.671 104.34L109.162 121.889L108.834 122.078V122.456V157.552V157.93L109.162 158.119L139.674 175.668L140 175.855L140.326 175.668L170.835 158.119L171.163 157.93V157.552V122.456V122.078L170.835 121.889L140.326 104.34ZM108.075 121.644L139.998 103.28L171.933 121.644V158.364L140 176.728L108.075 158.364V121.644Z" stroke="#020D16" stroke-width="1.30679"/>
<path d="M65.5839 65.273V97.2376L37.7144 113.251C34.8172 114.916 33.0309 118.003 33.0309 121.344V158.734C33.0309 162.076 34.8175 165.162 37.7152 166.827L65.5744 182.831V214.735C65.5744 218.077 67.361 221.164 70.2587 222.828L102.803 241.524C105.682 243.178 109.222 243.178 112.101 241.525L139.999 225.502L167.89 241.524C170.769 243.178 174.309 243.178 177.188 241.525L209.74 222.829C212.638 221.164 214.425 218.077 214.425 214.735V182.827L242.284 166.827C245.182 165.163 246.969 162.076 246.969 158.734V121.344C246.969 118.002 245.182 114.915 242.284 113.25L214.425 97.2503V65.2726C214.425 61.9305 212.638 58.8434 209.74 57.1789L177.188 38.4832C175.774 37.6708 174.171 37.2433 172.54 37.2433H172.532C170.9 37.2433 169.297 37.6711 167.882 38.4841L140.003 54.5033L112.111 38.4836C110.696 37.6712 109.093 37.2437 107.462 37.2437H107.455C105.823 37.2437 104.219 37.6715 102.804 38.4845L70.2674 57.1803C67.3702 58.845 65.5839 61.9316 65.5839 65.273Z" stroke="#04182A" stroke-width="18.6672" stroke-linejoin="round"/>
<path d="M68.0009 65.273V98.6341L38.9205 115.344C36.7723 116.578 35.4479 118.867 35.4479 121.344V158.734C35.4479 161.212 36.7726 163.5 38.9211 164.735L67.9914 181.434V214.735C67.9914 217.213 69.3161 219.502 71.4646 220.736L104.009 239.432C106.144 240.658 108.769 240.658 110.903 239.432L140.003 222.719L169.096 239.432C171.231 240.658 173.856 240.658 175.99 239.432L208.542 220.736C210.691 219.502 212.016 217.213 212.016 214.735V181.431L241.086 164.735C243.235 163.501 244.56 161.212 244.56 158.734V121.344C244.56 118.866 243.235 116.577 241.086 115.343L212.016 98.6472V65.2726C212.016 62.7946 210.691 60.5056 208.542 59.2715L175.99 40.5757C174.941 39.9734 173.753 39.6564 172.544 39.6564H172.536C171.326 39.6564 170.137 39.9736 169.088 40.5764L140.007 57.2862L110.913 40.5761C109.864 39.9738 108.675 39.6568 107.466 39.6568H107.458C106.248 39.6568 105.06 39.974 104.011 40.5768L71.4735 59.2725C69.3253 60.5069 68.0009 62.7954 68.0009 65.273Z" stroke="#44A5FF" stroke-width="13.841" stroke-linejoin="round"/>
<path d="M69.731 65.273V99.6354L39.7825 116.844C38.1714 117.77 37.178 119.486 37.178 121.344V158.734C37.178 160.592 38.1716 162.309 39.783 163.234L69.7215 180.433V214.735C69.7215 216.593 70.715 218.31 72.3264 219.236L104.871 237.931C106.472 238.851 108.441 238.851 110.041 237.932L140.003 220.724L169.958 237.932C171.559 238.851 173.528 238.851 175.129 237.932L207.681 219.236C209.292 218.311 210.286 216.594 210.286 214.735V180.429L240.224 163.235C241.836 162.309 242.83 160.592 242.83 158.734V121.344C242.83 119.486 241.836 117.769 240.224 116.843L210.286 99.6487V65.2726C210.286 63.4141 209.292 61.6974 207.681 60.7717L175.129 42.076C174.342 41.6242 173.451 41.3865 172.544 41.3865H172.536C171.629 41.3865 170.737 41.6244 169.95 42.0765L140.008 59.2815L110.051 42.0764C109.264 41.6246 108.373 41.3869 107.466 41.3869H107.458C106.551 41.3869 105.659 41.6248 104.873 42.0769L72.3355 60.7727C70.7244 61.6984 69.731 63.4148 69.731 65.273Z" stroke="#B4DBFF" stroke-width="10.3808" stroke-linejoin="round"/>
<path d="M71.4612 65.273V100.637L40.6445 118.344C39.5704 118.961 38.9081 120.105 38.9081 121.344V158.734C38.9081 159.973 39.5705 161.117 40.6448 161.734L71.4516 179.432V214.735C71.4516 215.974 72.114 217.118 73.1882 217.736L105.733 236.431C106.8 237.044 108.112 237.044 109.18 236.431L140.003 218.728L170.82 236.431C171.887 237.045 173.2 237.045 174.267 236.432L206.819 217.736C207.893 217.119 208.556 215.974 208.556 214.735V179.428L239.363 161.734C240.437 161.117 241.099 159.973 241.099 158.734V121.344C241.099 120.105 240.437 118.961 239.363 118.344L208.556 100.65V65.2726C208.556 64.0336 207.893 62.8891 206.819 62.272L174.267 43.5763C173.742 43.2751 173.148 43.1166 172.544 43.1166H172.536C171.931 43.1166 171.337 43.2753 170.812 43.5767L140.008 61.2768L109.189 43.5767C108.665 43.2755 108.071 43.117 107.466 43.117H107.458C106.853 43.117 106.259 43.2757 105.734 43.5771L73.1975 62.2728C72.1234 62.89 71.4612 64.0342 71.4612 65.273Z" stroke="url(#paint8_linear_532_6)" stroke-width="6.92052" stroke-linejoin="round"/>
<path d="M73.1913 65.273V101.638L41.5064 119.844C40.9694 120.153 40.6383 120.725 40.6383 121.344V158.734C40.6383 159.353 40.9695 159.925 41.5066 160.234L73.1817 178.43V214.735C73.1817 215.355 73.5129 215.927 74.0501 216.235L106.595 234.931C107.128 235.238 107.784 235.238 108.318 234.931L140.003 216.733L171.682 234.931C172.215 235.238 172.872 235.238 173.405 234.931L205.957 216.236C206.494 215.927 206.826 215.355 206.826 214.735V178.426L238.501 160.234C239.038 159.925 239.369 159.353 239.369 158.734V121.344C239.369 120.725 239.038 120.152 238.501 119.844L206.826 101.652V65.2726C206.826 64.6531 206.494 64.0809 205.957 63.7723L173.405 45.0766C173.143 44.926 172.846 44.8468 172.544 44.8468H172.536C172.234 44.8468 171.936 44.9261 171.674 45.0768L140.008 63.2721L108.328 45.077C108.065 44.9264 107.768 44.8472 107.466 44.8472H107.458C107.156 44.8472 106.859 44.9265 106.596 45.0772L74.0594 63.7729C73.5224 64.0815 73.1913 64.6536 73.1913 65.273Z" stroke="url(#paint9_linear_532_6)" stroke-width="3.46026" stroke-linejoin="round"/>
<path d="M140 65.2726V102.662L172.544 121.358L205.087 102.662V65.2726L172.544 46.5769L140 65.2726Z" fill="url(#paint10_linear_532_6)"/>
<g filter="url(#filter2_d_532_6)">
<path d="M172.544 52.8374L199.639 68.4029V99.5319L172.544 115.097L145.449 99.5319V68.4029L172.544 52.8374V52.8374ZM172.544 46.5769L140 65.2726V102.662L172.544 121.358L205.096 102.662V65.2726L172.544 46.5769V46.5769Z" fill="url(#paint11_linear_532_6)"/>
</g>
<path d="M172.544 51.9732L200.389 67.9698V99.9612L172.544 115.958L144.69 99.9612V67.9698L172.537 51.9732H172.544ZM172.537 46.5769L140 65.2726V102.662L172.544 121.358L205.096 102.662V65.2726L172.544 46.5769H172.537Z" fill="url(#paint12_linear_532_6)"/>
<path d="M172.544 49.3768L202.644 66.6688V101.268L172.544 118.551L142.439 101.268V66.6744L172.544 49.3768ZM172.544 46.5769L140 65.2726V102.662L172.544 121.358L205.096 102.662V65.2726L172.544 46.5769Z" fill="#849E01"/>
<path d="M172.95 48.2457L172.761 48.1376H172.544H172.541H172.323L172.135 48.2457L141.658 65.7543L141.25 65.9889V66.4598V101.475V101.946L141.658 102.181L172.139 119.689L172.544 119.922L172.95 119.689L203.427 102.18L203.835 101.946V101.475V66.4598V65.9889L203.427 65.7543L172.95 48.2457ZM140.813 65.7435L172.542 47.5141L204.283 65.7436V102.191L172.544 120.42L140.813 102.191V65.7435Z" fill="#E0B568" stroke="#010D17" stroke-width="1.62718"/>
<path d="M42.3684 121.344V158.734L74.9129 177.429L107.456 158.734V121.344L74.9129 102.648L42.3684 121.344Z" fill="url(#paint13_linear_532_6)"/>
<g filter="url(#filter3_d_532_6)">
<path d="M74.9129 108.909L102.008 124.474V155.603L74.9129 171.169L47.8181 155.603V124.474L74.9129 108.909V108.909ZM74.9129 102.648L42.3684 121.344V158.734L74.9129 177.429L107.465 158.734V121.344L74.9129 102.648V102.648Z" fill="#4F7301"/>
</g>
<path d="M74.9129 108.045L102.758 124.041V156.033L74.9129 172.029L47.0584 156.033V124.041L74.9054 108.045H74.9129ZM74.9054 102.648L42.3684 121.344V158.734L74.9129 177.429L107.465 158.734V121.344L74.9129 102.648H74.9054Z" fill="#5EC148"/>
<path d="M74.9129 105.448L105.013 122.74V157.339L74.9129 174.622L44.8072 157.339V122.746L74.9129 105.448ZM74.9129 102.648L42.3684 121.344V158.734L74.9129 177.429L107.465 158.734V121.344L74.9129 102.648Z" fill="#1D5728"/>
<path d="M75.3182 104.317L75.13 104.209H74.9129H74.9092H74.6921L74.5039 104.317L44.0267 121.826L43.6184 122.06V122.531V157.546V158.017L44.0267 158.252L74.5077 175.76L74.9129 175.993L75.3182 175.76L105.795 158.252L106.204 158.017V157.546V122.531V122.06L105.795 121.826L75.3182 104.317ZM43.182 121.815L74.9111 103.586L106.651 121.815V158.263L74.913 176.491L43.182 158.263V121.815Z" fill="#E0B568" stroke="#010D17" stroke-width="1.62718"/>
<path d="M172.543 121.344V158.734L205.088 177.429L237.63 158.734V121.344L205.088 102.648L172.543 121.344Z" fill="url(#paint14_linear_532_6)"/>
<g filter="url(#filter4_d_532_6)">
<path d="M205.088 108.909L232.182 124.474V155.603L205.088 171.169L177.993 155.603V124.474L205.088 108.909V108.909ZM205.088 102.648L172.543 121.344V158.734L205.088 177.429L237.64 158.734V121.344L205.088 102.648V102.648Z" fill="#4F7301"/>
</g>
<path d="M205.088 108.045L232.933 124.041V156.033L205.088 172.029L177.233 156.033V124.041L205.08 108.045H205.088ZM205.08 102.648L172.543 121.344V158.734L205.088 177.429L237.64 158.734V121.344L205.088 102.648H205.08Z" fill="#5EC148"/>
<path d="M205.088 105.448L235.188 122.74V157.339L205.088 174.622L174.982 157.339V122.746L205.088 105.448ZM205.088 102.648L172.543 121.344V158.734L205.088 177.429L237.64 158.734V121.344L205.088 102.648Z" fill="#1D5728"/>
<path d="M205.493 104.317L205.305 104.209H205.088H205.084H204.867L204.679 104.317L174.201 121.826L173.793 122.06V122.531V157.546V158.017L174.201 158.252L204.682 175.76L205.088 175.993L205.493 175.76L235.97 158.252L236.378 158.017V157.546V122.531V122.06L235.97 121.826L205.493 104.317ZM173.357 121.815L205.086 103.586L236.826 121.815V158.263L205.088 176.491L173.357 158.263V121.815Z" fill="#E0B568" stroke="#010D17" stroke-width="1.62718"/>
<path d="M140 177.346V214.736L172.544 233.432L205.087 214.736V177.346L172.544 158.651L140 177.346Z" fill="url(#paint15_linear_532_6)"/>
<g filter="url(#filter5_d_532_6)">
<path d="M172.544 164.911L199.639 180.476V211.606L172.544 227.171L145.449 211.606V180.476L172.544 164.911V164.911ZM172.544 158.651L140 177.346V214.736L172.544 233.432L205.096 214.736V177.346L172.544 158.651V158.651Z" fill="#A3710A"/>
</g>
<path d="M172.544 164.047L200.389 180.043V212.035L172.544 228.031L144.69 212.035V180.043L172.537 164.047H172.544ZM172.537 158.651L140 177.346V214.736L172.544 233.432L205.096 214.736V177.346L172.544 158.651H172.537Z" fill="#FFD867"/>
<path d="M172.544 161.45L202.644 178.742V213.341L172.544 230.624L142.439 213.341V178.748L172.544 161.45ZM172.544 158.651L140 177.346V214.736L172.544 233.432L205.096 214.736V177.346L172.544 158.651Z" fill="#966502"/>
<path d="M172.95 160.319L172.761 160.211H172.544H172.541H172.323L172.135 160.319L141.658 177.828L141.25 178.062V178.533V213.549V214.02L141.658 214.254L172.139 231.763L172.544 231.995L172.95 231.763L203.427 214.254L203.835 214.02V213.549V178.533V178.062L203.427 177.828L172.95 160.319ZM140.813 177.817L172.542 159.588L204.283 177.817V214.265L172.544 232.493L140.813 214.265V177.817Z" fill="#E0B568" stroke="#010D17" stroke-width="1.62718"/>
<path d="M74.9126 177.345V214.735L107.457 233.431L140 214.735V177.345L107.457 158.65L74.9126 177.345Z" fill="url(#paint16_linear_532_6)"/>
<g filter="url(#filter6_d_532_6)">
<path d="M107.457 164.91L134.552 180.476V211.605L107.457 227.17L80.3623 211.605V180.476L107.457 164.91V164.91ZM107.457 158.65L74.9126 177.345V214.735L107.457 233.431L140.009 214.735V177.345L107.457 158.65V158.65Z" fill="url(#paint17_linear_532_6)"/>
</g>
<path d="M107.457 164.046L135.302 180.042V212.034L107.457 228.031L79.6025 212.034V180.042L107.45 164.046H107.457ZM107.45 158.65L74.9126 177.345V214.735L107.457 233.431L140.009 214.735V177.345L107.457 158.65H107.45Z" fill="url(#paint18_linear_532_6)"/>
<path d="M107.457 161.449L137.557 178.741V213.34L107.457 230.623L77.3514 213.34V178.747L107.457 161.449ZM107.457 158.65L74.9126 177.345V214.735L107.457 233.431L140.009 214.735V177.345L107.457 158.65Z" fill="url(#paint19_linear_532_6)"/>
<path d="M107.862 160.318L107.674 160.21H107.457H107.453H107.236L107.048 160.318L76.5709 177.827L76.1626 178.062V178.532V213.548V214.019L76.5709 214.253L107.052 231.762L107.457 231.995L107.862 231.762L138.34 214.253L138.748 214.019V213.548V178.532V178.062L138.34 177.827L107.862 160.318ZM75.7262 177.816L107.455 159.587L139.196 177.816V214.264L107.457 232.492L75.7262 214.264V177.816Z" fill="#E0B568" stroke="#010D17" stroke-width="1.62718"/>
<path d="M74.9216 65.2726V102.662L107.466 121.358L140.009 102.662V65.2726L107.466 46.5769L74.9216 65.2726Z" fill="url(#paint20_linear_532_6)"/>
<g filter="url(#filter7_d_532_6)">
<path d="M107.466 52.8374L134.561 68.4029V99.5319L107.466 115.097L80.3714 99.5319V68.4029L107.466 52.8374V52.8374ZM107.466 46.5769L74.9216 65.2726V102.662L107.466 121.358L140.018 102.662V65.2726L107.466 46.5769V46.5769Z" fill="url(#paint21_linear_532_6)"/>
</g>
<path d="M107.466 51.9732L135.311 67.9698V99.9612L107.466 115.958L79.6116 99.9612V67.9698L107.459 51.9732H107.466ZM107.459 46.5769L74.9216 65.2726V102.662L107.466 121.358L140.018 102.662V65.2726L107.466 46.5769H107.459Z" fill="url(#paint22_linear_532_6)"/>
<path d="M107.466 49.3768L137.566 66.6688V101.268L107.466 118.551L77.3604 101.268V66.6744L107.466 49.3768ZM107.466 46.5769L74.9216 65.2726V102.662L107.466 121.358L140.018 102.662V65.2726L107.466 46.5769Z" fill="url(#paint23_linear_532_6)"/>
<path d="M107.871 48.2457L107.683 48.1376H107.466H107.462H107.245L107.057 48.2457L76.5799 65.7543L76.1716 65.9889V66.4598V101.475V101.946L76.58 102.181L107.061 119.689L107.466 119.922L107.871 119.689L138.349 102.18L138.757 101.946V101.475V66.4598V65.9889L138.349 65.7543L107.871 48.2457ZM75.7352 65.7435L107.464 47.5141L139.205 65.7436V102.191L107.466 120.42L75.7352 102.191V65.7435Z" fill="#E0B568" stroke="#010D17" stroke-width="1.62718"/>
<defs>
<filter id="filter0_dddd_532_6" x="91.3496" y="100.624" width="97.262" height="99.7904" filterUnits="userSpaceOnUse" color-interpolation-filters="sRGB">
<feFlood flood-opacity="0" result="BackgroundImageFix"/>
<feColorMatrix in="SourceAlpha" type="matrix" values="0 0 0 0 0 0 0 0 0 0 0 0 0 0 0 0 0 0 127 0" result="hardAlpha"/>
<feOffset dy="1.31962"/>
<feGaussianBlur stdDeviation="1.31962"/>
<feColorMatrix type="matrix" values="0 0 0 0 0.0156863 0 0 0 0 0.121569 0 0 0 0 0.223529 0 0 0 0.1 0"/>
<feBlend mode="normal" in2="BackgroundImageFix" result="effect1_dropShadow_532_6"/>
<feColorMatrix in="SourceAlpha" type="matrix" values="0 0 0 0 0 0 0 0 0 0 0 0 0 0 0 0 0 0 127 0" result="hardAlpha"/>
<feOffset dy="2.63924"/>
<feGaussianBlur stdDeviation="2.63924"/>
<feColorMatrix type="matrix" values="0 0 0 0 0.0156863 0 0 0 0 0.121569 0 0 0 0 0.223529 0 0 0 0.09 0"/>
<feBlend mode="normal" in2="effect1_dropShadow_532_6" result="effect2_dropShadow_532_6"/>
<feColorMatrix in="SourceAlpha" type="matrix" values="0 0 0 0 0 0 0 0 0 0 0 0 0 0 0 0 0 0 127 0" result="hardAlpha"/>
<feOffset dy="5.27848"/>
<feGaussianBlur stdDeviation="7.91772"/>
<feColorMatrix type="matrix" values="0 0 0 0 0.0156863 0 0 0 0 0.121569 0 0 0 0 0.223529 0 0 0 0.05 0"/>
<feBlend mode="normal" in2="effect2_dropShadow_532_6" result="effect3_dropShadow_532_6"/>
<feColorMatrix in="SourceAlpha" type="matrix" values="0 0 0 0 0 0 0 0 0 0 0 0 0 0 0 0 0 0 127 0" result="hardAlpha"/>
<feOffset dy="10.557"/>
<feGaussianBlur stdDeviation="15.8354"/>
<feColorMatrix type="matrix" values="0 0 0 0 0.0156863 0 0 0 0 0.121569 0 0 0 0 0.223529 0 0 0 0.01 0"/>
<feBlend mode="normal" in2="effect3_dropShadow_532_6" result="effect4_dropShadow_532_6"/>
<feBlend mode="normal" in="SourceGraphic" in2="effect4_dropShadow_532_6" result="shape"/>
</filter>
<filter id="filter1_d_532_6" x="106.41" y="102.074" width="67.1635" height="76.6724" filterUnits="userSpaceOnUse" color-interpolation-filters="sRGB">
<feFlood flood-opacity="0" result="BackgroundImageFix"/>
<feColorMatrix in="SourceAlpha" type="matrix" values="0 0 0 0 0 0 0 0 0 0 0 0 0 0 0 0 0 0 127 0" result="hardAlpha"/>
<feOffset dy="0.405954"/>
<feGaussianBlur stdDeviation="0.811908"/>
<feComposite in2="hardAlpha" operator="out"/>
<feColorMatrix type="matrix" values="0 0 0 0 0 0 0 0 0 0 0 0 0 0 0 0 0 0 0.1 0"/>
<feBlend mode="normal" in2="BackgroundImageFix" result="effect1_dropShadow_532_6"/>
<feBlend mode="normal" in="SourceGraphic" in2="effect1_dropShadow_532_6" result="shape"/>
</filter>
<filter id="filter2_d_532_6" x="137.723" y="44.8695" width="69.6495" height="79.334" filterUnits="userSpaceOnUse" color-interpolation-filters="sRGB">
<feFlood flood-opacity="0" result="BackgroundImageFix"/>
<feColorMatrix in="SourceAlpha" type="matrix" values="0 0 0 0 0 0 0 0 0 0 0 0 0 0 0 0 0 0 127 0" result="hardAlpha"/>
<feOffset dy="0.569122"/>
<feGaussianBlur stdDeviation="1.13824"/>
<feComposite in2="hardAlpha" operator="out"/>
<feColorMatrix type="matrix" values="0 0 0 0 0 0 0 0 0 0 0 0 0 0 0 0 0 0 0.1 0"/>
<feBlend mode="normal" in2="BackgroundImageFix" result="effect1_dropShadow_532_6"/>
<feBlend mode="normal" in="SourceGraphic" in2="effect1_dropShadow_532_6" result="shape"/>
</filter>
<filter id="filter3_d_532_6" x="40.0919" y="100.941" width="69.6495" height="79.334" filterUnits="userSpaceOnUse" color-interpolation-filters="sRGB">
<feFlood flood-opacity="0" result="BackgroundImageFix"/>
<feColorMatrix in="SourceAlpha" type="matrix" values="0 0 0 0 0 0 0 0 0 0 0 0 0 0 0 0 0 0 127 0" result="hardAlpha"/>
<feOffset dy="0.569122"/>
<feGaussianBlur stdDeviation="1.13824"/>
<feComposite in2="hardAlpha" operator="out"/>
<feColorMatrix type="matrix" values="0 0 0 0 0 0 0 0 0 0 0 0 0 0 0 0 0 0 0.1 0"/>
<feBlend mode="normal" in2="BackgroundImageFix" result="effect1_dropShadow_532_6"/>
<feBlend mode="normal" in="SourceGraphic" in2="effect1_dropShadow_532_6" result="shape"/>
</filter>
<filter id="filter4_d_532_6" x="170.267" y="100.941" width="69.6495" height="79.334" filterUnits="userSpaceOnUse" color-interpolation-filters="sRGB">
<feFlood flood-opacity="0" result="BackgroundImageFix"/>
<feColorMatrix in="SourceAlpha" type="matrix" values="0 0 0 0 0 0 0 0 0 0 0 0 0 0 0 0 0 0 127 0" result="hardAlpha"/>
<feOffset dy="0.569122"/>
<feGaussianBlur stdDeviation="1.13824"/>
<feComposite in2="hardAlpha" operator="out"/>
<feColorMatrix type="matrix" values="0 0 0 0 0 0 0 0 0 0 0 0 0 0 0 0 0 0 0.1 0"/>
<feBlend mode="normal" in2="BackgroundImageFix" result="effect1_dropShadow_532_6"/>
<feBlend mode="normal" in="SourceGraphic" in2="effect1_dropShadow_532_6" result="shape"/>
</filter>
<filter id="filter5_d_532_6" x="137.723" y="156.943" width="69.6495" height="79.334" filterUnits="userSpaceOnUse" color-interpolation-filters="sRGB">
<feFlood flood-opacity="0" result="BackgroundImageFix"/>
<feColorMatrix in="SourceAlpha" type="matrix" values="0 0 0 0 0 0 0 0 0 0 0 0 0 0 0 0 0 0 127 0" result="hardAlpha"/>
<feOffset dy="0.569122"/>
<feGaussianBlur stdDeviation="1.13824"/>
<feComposite in2="hardAlpha" operator="out"/>
<feColorMatrix type="matrix" values="0 0 0 0 0 0 0 0 0 0 0 0 0 0 0 0 0 0 0.1 0"/>
<feBlend mode="normal" in2="BackgroundImageFix" result="effect1_dropShadow_532_6"/>
<feBlend mode="normal" in="SourceGraphic" in2="effect1_dropShadow_532_6" result="shape"/>
</filter>
<filter id="filter6_d_532_6" x="72.6361" y="156.942" width="69.6495" height="79.334" filterUnits="userSpaceOnUse" color-interpolation-filters="sRGB">
<feFlood flood-opacity="0" result="BackgroundImageFix"/>
<feColorMatrix in="SourceAlpha" type="matrix" values="0 0 0 0 0 0 0 0 0 0 0 0 0 0 0 0 0 0 127 0" result="hardAlpha"/>
<feOffset dy="0.569122"/>
<feGaussianBlur stdDeviation="1.13824"/>
<feComposite in2="hardAlpha" operator="out"/>
<feColorMatrix type="matrix" values="0 0 0 0 0 0 0 0 0 0 0 0 0 0 0 0 0 0 0.1 0"/>
<feBlend mode="normal" in2="BackgroundImageFix" result="effect1_dropShadow_532_6"/>
<feBlend mode="normal" in="SourceGraphic" in2="effect1_dropShadow_532_6" result="shape"/>
</filter>
<filter id="filter7_d_532_6" x="72.6451" y="44.8695" width="69.6495" height="79.334" filterUnits="userSpaceOnUse" color-interpolation-filters="sRGB">
<feFlood flood-opacity="0" result="BackgroundImageFix"/>
<feColorMatrix in="SourceAlpha" type="matrix" values="0 0 0 0 0 0 0 0 0 0 0 0 0 0 0 0 0 0 127 0" result="hardAlpha"/>
<feOffset dy="0.569122"/>
<feGaussianBlur stdDeviation="1.13824"/>
<feComposite in2="hardAlpha" operator="out"/>
<feColorMatrix type="matrix" values="0 0 0 0 0 0 0 0 0 0 0 0 0 0 0 0 0 0 0.1 0"/>
<feBlend mode="normal" in2="BackgroundImageFix" result="effect1_dropShadow_532_6"/>
<feBlend mode="normal" in="SourceGraphic" in2="effect1_dropShadow_532_6" result="shape"/>
</filter>
<linearGradient id="paint0_linear_532_6" x1="139.987" y1="103.292" x2="139.987" y2="176.717" gradientUnits="userSpaceOnUse">
<stop stop-color="#3BB8E2"/>
<stop offset="1" stop-color="#0CA7DB"/>
</linearGradient>
<linearGradient id="paint1_linear_532_6" x1="139.987" y1="103.291" x2="139.987" y2="176.708" gradientUnits="userSpaceOnUse">
<stop stop-color="#00AAFF"/>
<stop offset="0.268837" stop-color="#04A6FF"/>
<stop offset="0.493837" stop-color="#0E99FF"/>
<stop offset="0.713837" stop-color="#2083FF"/>
<stop offset="0.958837" stop-color="#2083FF"/>
</linearGradient>
<linearGradient id="paint2_linear_532_6" x1="139.992" y1="103.292" x2="139.992" y2="176.717" gradientUnits="userSpaceOnUse">
<stop stop-color="#AC060F"/>
<stop offset="1" stop-color="#D42E37"/>
</linearGradient>
<linearGradient id="paint3_linear_532_6" x1="139.992" y1="103.292" x2="139.992" y2="176.717" gradientUnits="userSpaceOnUse">
<stop stop-color="#00A3D9"/>
<stop offset="1" stop-color="#07AFE7"/>
</linearGradient>
<linearGradient id="paint4_linear_532_6" x1="139.992" y1="103.292" x2="139.992" y2="176.717" gradientUnits="userSpaceOnUse">
<stop stop-color="#FFBF58"/>
<stop offset="1" stop-color="#F9AB44"/>
</linearGradient>
<linearGradient id="paint5_linear_532_6" x1="139.992" y1="103.292" x2="139.992" y2="176.717" gradientUnits="userSpaceOnUse">
<stop stop-color="#FF9C25"/>
<stop offset="0.648958" stop-color="#FCB122"/>
<stop offset="1" stop-color="#FEFB8C"/>
</linearGradient>
<linearGradient id="paint6_linear_532_6" x1="139.992" y1="103.292" x2="139.992" y2="176.717" gradientUnits="userSpaceOnUse">
<stop stop-color="#D7AA40"/>
<stop offset="0.648958" stop-color="#CDB742"/>
<stop offset="1" stop-color="#AF8600"/>
</linearGradient>
<linearGradient id="paint7_linear_532_6" x1="139.992" y1="103.292" x2="139.992" y2="176.717" gradientUnits="userSpaceOnUse">
<stop stop-color="#FFD268"/>
<stop offset="0.648958" stop-color="#FFE974"/>
<stop offset="1" stop-color="#FFD600"/>
</linearGradient>
<linearGradient id="paint8_linear_532_6" x1="140.004" y1="46.5769" x2="140.004" y2="233.431" gradientUnits="userSpaceOnUse">
<stop stop-color="#FCF2CA"/>
<stop offset="1" stop-color="#DED4AC"/>
</linearGradient>
<linearGradient id="paint9_linear_532_6" x1="140.004" y1="46.5769" x2="140.004" y2="233.431" gradientUnits="userSpaceOnUse">
<stop stop-color="#EAC076"/>
<stop offset="1" stop-color="#CCA258"/>
</linearGradient>
<linearGradient id="paint10_linear_532_6" x1="172.543" y1="46.5769" x2="172.543" y2="121.358" gradientUnits="userSpaceOnUse">
<stop stop-color="#8DA400"/>
<stop offset="1" stop-color="#B5CC16"/>
</linearGradient>
<linearGradient id="paint11_linear_532_6" x1="172.548" y1="46.5769" x2="172.548" y2="121.358" gradientUnits="userSpaceOnUse">
<stop stop-color="#4F7301"/>
<stop offset="1" stop-color="#638715"/>
</linearGradient>
<linearGradient id="paint12_linear_532_6" x1="172.548" y1="46.5769" x2="172.548" y2="121.358" gradientUnits="userSpaceOnUse">
<stop stop-color="#CED501"/>
<stop offset="1" stop-color="#BAC100"/>
</linearGradient>
<linearGradient id="paint13_linear_532_6" x1="74.912" y1="102.648" x2="74.912" y2="177.429" gradientUnits="userSpaceOnUse">
<stop stop-color="#0B8921"/>
<stop offset="1" stop-color="#33B149"/>
</linearGradient>
<linearGradient id="paint14_linear_532_6" x1="205.087" y1="102.648" x2="205.087" y2="177.429" gradientUnits="userSpaceOnUse">
<stop stop-color="#0B8921"/>
<stop offset="1" stop-color="#33B149"/>
</linearGradient>
<linearGradient id="paint15_linear_532_6" x1="172.543" y1="158.651" x2="172.543" y2="233.432" gradientUnits="userSpaceOnUse">
<stop stop-color="#EAB128"/>
<stop offset="1" stop-color="#FFD950"/>
</linearGradient>
<linearGradient id="paint16_linear_532_6" x1="107.456" y1="158.65" x2="107.456" y2="233.431" gradientUnits="userSpaceOnUse">
<stop stop-color="#A3A9A5"/>
<stop offset="1" stop-color="#CBD1CD"/>
</linearGradient>
<linearGradient id="paint17_linear_532_6" x1="107.461" y1="158.65" x2="107.461" y2="233.431" gradientUnits="userSpaceOnUse">
<stop stop-color="#7D807E"/>
<stop offset="1" stop-color="#696C6A"/>
</linearGradient>
<linearGradient id="paint18_linear_532_6" x1="107.461" y1="158.65" x2="107.461" y2="233.431" gradientUnits="userSpaceOnUse">
<stop stop-color="#D6DBD8"/>
<stop offset="1" stop-color="#AEB3B0"/>
</linearGradient>
<linearGradient id="paint19_linear_532_6" x1="107.461" y1="158.65" x2="107.461" y2="233.431" gradientUnits="userSpaceOnUse">
<stop stop-color="#777A78"/>
<stop offset="1" stop-color="#636664"/>
</linearGradient>
<linearGradient id="paint20_linear_532_6" x1="107.465" y1="46.5769" x2="107.465" y2="121.358" gradientUnits="userSpaceOnUse">
<stop stop-color="#CF5115"/>
<stop offset="1" stop-color="#F7793D"/>
</linearGradient>
<linearGradient id="paint21_linear_532_6" x1="107.47" y1="46.5769" x2="107.47" y2="121.358" gradientUnits="userSpaceOnUse">
<stop stop-color="#AC060F"/>
<stop offset="1" stop-color="#D42E37"/>
</linearGradient>
<linearGradient id="paint22_linear_532_6" x1="107.47" y1="46.5769" x2="107.47" y2="121.358" gradientUnits="userSpaceOnUse">
<stop stop-color="#FFBF58"/>
<stop offset="1" stop-color="#F9AB44"/>
</linearGradient>
<linearGradient id="paint23_linear_532_6" x1="107.47" y1="46.5769" x2="107.47" y2="121.358" gradientUnits="userSpaceOnUse">
<stop stop-color="#AA020E"/>
<stop offset="1" stop-color="#D22A36"/>
</linearGradient>
</defs>
</svg>
