<svg xmlns="http://www.w3.org/2000/svg" viewBox="0 0 400 260" role="img" aria-label="Carcassonne">
  <rect width="400" height="260" fill="#1a2417"/>
  <g stroke="#0b0c0e" stroke-width="2">
    <rect x="60" y="40" width="90" height="90" fill="#6f9a3f"/>
    <rect x="150" y="40" width="90" height="90" fill="#c98a3a"/>
    <rect x="240" y="40" width="90" height="90" fill="#6f9a3f"/>
    <rect x="60" y="130" width="90" height="90" fill="#c98a3a"/>
    <rect x="150" y="130" width="90" height="90" fill="#6f9a3f"/>
    <rect x="240" y="130" width="90" height="90" fill="#c98a3a"/>
  </g>
  <g stroke="#7a5326" stroke-width="10" fill="none" stroke-linecap="round">
    <path d="M105 40 V130 M150 175 H240"/>
  </g>
  <g fill="#9a6a30">
    <rect x="168" y="58" width="54" height="54" rx="4"/>
    <rect x="176" y="48" width="12" height="14"/><rect x="202" y="48" width="12" height="14"/>
  </g>
  <g transform="translate(178 150)">
    <circle cx="17" cy="10" r="10" fill="#e11d48"/>
    <path d="M2 46c0-12 6-20 15-20s15 8 15 20z" fill="#e11d48"/>
    <path d="M0 30l17-6 17 6-6 12-11-5-11 5z" fill="#e11d48"/>
  </g>
</svg>
