<svg xmlns="http://www.w3.org/2000/svg" viewBox="0 0 400 260" role="img" aria-label="Catan">
  <rect width="400" height="260" fill="#0f2a3a"/>
  <g stroke="#0b0c0e" stroke-width="3" stroke-linejoin="round">
    <g transform="translate(200 130)">
      <polygon points="0,-44 38,-22 38,22 0,44 -38,22 -38,-22" fill="#e2b155"/>
    </g>
    <g transform="translate(122 130)">
      <polygon points="0,-44 38,-22 38,22 0,44 -38,22 -38,-22" fill="#3f8f4f"/>
    </g>
    <g transform="translate(278 130)">
      <polygon points="0,-44 38,-22 38,22 0,44 -38,22 -38,-22" fill="#b5443a"/>
    </g>
    <g transform="translate(161 63)">
      <polygon points="0,-44 38,-22 38,22 0,44 -38,22 -38,-22" fill="#6b8f34"/>
    </g>
    <g transform="translate(239 63)">
      <polygon points="0,-44 38,-22 38,22 0,44 -38,22 -38,-22" fill="#8a8f96"/>
    </g>
    <g transform="translate(161 197)">
      <polygon points="0,-44 38,-22 38,22 0,44 -38,22 -38,-22" fill="#3f8f4f"/>
    </g>
    <g transform="translate(239 197)">
      <polygon points="0,-44 38,-22 38,22 0,44 -38,22 -38,-22" fill="#e2b155"/>
    </g>
  </g>
  <g fill="#f8fafc" font-family="Arial, sans-serif" font-weight="700" font-size="20" text-anchor="middle">
    <circle cx="200" cy="130" r="15" fill="#faf3e0"/><text x="200" y="137" fill="#b5443a">8</text>
    <circle cx="122" cy="130" r="15" fill="#faf3e0"/><text x="122" y="137" fill="#111">5</text>
    <circle cx="278" cy="130" r="15" fill="#faf3e0"/><text x="278" y="137" fill="#b5443a">6</text>
  </g>
</svg>
