<svg xmlns="http://www.w3.org/2000/svg" viewBox="0 0 400 260" role="img" aria-label="Chess">
  <rect width="400" height="260" fill="#15171c"/>
  <g transform="translate(60 26)">
    <rect width="208" height="208" rx="8" fill="#2b2e36"/>
    <g fill="#e9e6df">
      <rect x="0" y="0" width="26" height="26"/><rect x="52" y="0" width="26" height="26"/><rect x="104" y="0" width="26" height="26"/><rect x="156" y="0" width="26" height="26"/>
      <rect x="26" y="26" width="26" height="26"/><rect x="78" y="26" width="26" height="26"/><rect x="130" y="26" width="26" height="26"/><rect x="182" y="26" width="26" height="26"/>
      <rect x="0" y="52" width="26" height="26"/><rect x="52" y="52" width="26" height="26"/><rect x="104" y="52" width="26" height="26"/><rect x="156" y="52" width="26" height="26"/>
      <rect x="26" y="78" width="26" height="26"/><rect x="78" y="78" width="26" height="26"/><rect x="130" y="78" width="26" height="26"/><rect x="182" y="78" width="26" height="26"/>
      <rect x="0" y="104" width="26" height="26"/><rect x="52" y="104" width="26" height="26"/><rect x="104" y="104" width="26" height="26"/><rect x="156" y="104" width="26" height="26"/>
      <rect x="26" y="130" width="26" height="26"/><rect x="78" y="130" width="26" height="26"/><rect x="130" y="130" width="26" height="26"/><rect x="182" y="130" width="26" height="26"/>
      <rect x="0" y="156" width="26" height="26"/><rect x="52" y="156" width="26" height="26"/><rect x="104" y="156" width="26" height="26"/><rect x="156" y="156" width="26" height="26"/>
      <rect x="26" y="182" width="26" height="26"/><rect x="78" y="182" width="26" height="26"/><rect x="130" y="182" width="26" height="26"/><rect x="182" y="182" width="26" height="26"/>
    </g>
  </g>
  <g transform="translate(150 70)" fill="#f97316" stroke="#0b0c0e" stroke-width="3" stroke-linejoin="round">
    <path d="M40 8c18 0 30 12 32 30l6 46c1 8-4 12-12 12H14c-8 0-13-4-12-12l6-46C10 22 22 8 40 8z" transform="translate(0 0)"/>
    <path d="M30 26c-8 6-14 16-16 30l14 4 6-14 8 10 8-10 6 14 14-4c-2-14-8-24-16-30-6 8-14 8-22 8s-16 0-22-8z" fill="#fb923c" transform="translate(0 4)"/>
    <rect x="0" y="104" width="80" height="16" rx="4"/>
  </g>
</svg>
