<svg xmlns="http://www.w3.org/2000/svg" viewBox="0 0 400 260" role="img" aria-label="Monopoly">
  <rect width="400" height="260" fill="#0e3b2e"/>
  <rect x="18" y="18" width="364" height="224" rx="12" fill="#124a39" stroke="#1c6b53" stroke-width="2"/>
  <rect x="40" y="40" width="320" height="46" rx="6" fill="#e11d48"/>
  <rect x="40" y="98" width="320" height="20" rx="4" fill="#0b2c22"/>
  <g fill="#f8fafc">
    <rect x="52" y="104" width="40" height="8" rx="2" opacity="0.75"/>
    <rect x="108" y="104" width="60" height="8" rx="2" opacity="0.75"/>
    <rect x="184" y="104" width="48" height="8" rx="2" opacity="0.75"/>
    <rect x="248" y="104" width="64" height="8" rx="2" opacity="0.75"/>
  </g>
  <g transform="translate(200 175)">
    <ellipse cx="0" cy="34" rx="70" ry="10" fill="#0b2c22"/>
    <rect x="-52" y="6" width="104" height="18" rx="9" fill="#111827"/>
    <rect x="-30" y="-34" width="60" height="44" rx="8" fill="#111827"/>
    <rect x="-30" y="4" width="60" height="6" fill="#f59e0b"/>
  </g>
  <circle cx="330" cy="150" r="18" fill="#f8fafc"/>
  <g fill="#0e3b2e">
    <circle cx="324" cy="144" r="2.5"/>
    <circle cx="336" cy="144" r="2.5"/>
    <circle cx="330" cy="150" r="2.5"/>
    <circle cx="324" cy="156" r="2.5"/>
    <circle cx="336" cy="156" r="2.5"/>
  </g>
</svg>
